# 3ds Max Wavefront OBJ Exporter v0.94b - (c)2007 guruware
# File Created: 17.07.2010 20:35:41

mtllib cajaEsfera.mtl

#
# object Box01
#

v  -50.0000 -120.0000 0.0000
v  -50.0000 -70.0000 0.0000
v  0.0000 -70.0000 0.0000
v  0.0000 -120.0000 0.0000
v  50.0000 -70.0000 0.0000
v  50.0000 -120.0000 0.0000
v  -50.0000 -20.0000 0.0000
v  0.0000 -20.0000 0.0000
v  50.0000 -20.0000 0.0000
v  -50.0000 -120.0000 100.0000
v  0.0000 -120.0000 100.0000
v  0.0000 -70.0000 100.0000
v  -50.0000 -70.0000 100.0000
v  50.0000 -120.0000 100.0000
v  50.0000 -70.0000 100.0000
v  0.0000 -20.0000 100.0000
v  -50.0000 -20.0000 100.0000
v  50.0000 -20.0000 100.0000
v  0.0000 -120.0000 50.0000
v  -50.0000 -120.0000 50.0000
v  50.0000 -120.0000 50.0000
v  50.0000 -70.0000 50.0000
v  50.0000 -20.0000 50.0000
v  0.0000 -20.0000 50.0000
v  -50.0000 -20.0000 50.0000
v  -50.0000 -70.0000 50.0000
# 26 vertices

vn 0.0000 0.0000 -1.0000
vn 0.0000 0.0000 1.0000
vn 0.0000 -1.0000 0.0000
vn 1.0000 0.0000 0.0000
vn 0.0000 1.0000 0.0000
vn -1.0000 0.0000 0.0000
# 6 vertex normals

g Box01
usemtl 03___Default
f 1//1 2//1 3//1 
f 3//1 4//1 1//1 
f 4//1 3//1 5//1 
f 5//1 6//1 4//1 
f 2//1 7//1 8//1 
f 8//1 3//1 2//1 
f 3//1 8//1 9//1 
f 9//1 5//1 3//1 
f 10//2 11//2 12//2 
f 12//2 13//2 10//2 
f 11//2 14//2 15//2 
f 15//2 12//2 11//2 
f 13//2 12//2 16//2 
f 16//2 17//2 13//2 
f 12//2 15//2 18//2 
f 18//2 16//2 12//2 
f 1//3 4//3 19//3 
f 19//3 20//3 1//3 
f 4//3 6//3 21//3 
f 21//3 19//3 4//3 
f 20//3 19//3 11//3 
f 11//3 10//3 20//3 
f 19//3 21//3 14//3 
f 14//3 11//3 19//3 
f 6//4 5//4 22//4 
f 22//4 21//4 6//4 
f 5//4 9//4 23//4 
f 23//4 22//4 5//4 
f 21//4 22//4 15//4 
f 15//4 14//4 21//4 
f 22//4 23//4 18//4 
f 18//4 15//4 22//4 
f 9//5 8//5 24//5 
f 24//5 23//5 9//5 
f 8//5 7//5 25//5 
f 25//5 24//5 8//5 
f 23//5 24//5 16//5 
f 16//5 18//5 23//5 
f 24//5 25//5 17//5 
f 17//5 16//5 24//5 
f 7//6 2//6 26//6 
f 26//6 25//6 7//6 
f 2//6 1//6 20//6 
f 20//6 26//6 2//6 
f 25//6 26//6 13//6 
f 13//6 17//6 25//6 
f 26//6 20//6 10//6 
f 10//6 13//6 26//6 
# 48 faces

#
# object Sphere01
#

v  0.0000 55.0000 100.0000
v  -0.0000 74.1342 96.1940
v  -7.3223 72.6777 96.1940
v  -13.5299 68.5299 96.1940
v  -17.6777 62.3223 96.1940
v  -19.1342 55.0000 96.1940
v  -17.6777 47.6777 96.1940
v  -13.5299 41.4701 96.1940
v  -7.3223 37.3223 96.1940
v  0.0000 35.8658 96.1940
v  7.3223 37.3223 96.1940
v  13.5299 41.4701 96.1940
v  17.6777 47.6777 96.1940
v  19.1342 55.0000 96.1940
v  17.6777 62.3223 96.1940
v  13.5299 68.5299 96.1940
v  7.3223 72.6777 96.1940
v  -0.0000 90.3553 85.3553
v  -13.5299 87.6641 85.3553
v  -25.0000 80.0000 85.3553
v  -32.6641 68.5299 85.3553
v  -35.3553 55.0000 85.3553
v  -32.6641 41.4701 85.3553
v  -25.0000 30.0000 85.3553
v  -13.5299 22.3359 85.3553
v  0.0000 19.6447 85.3553
v  13.5299 22.3359 85.3553
v  25.0000 30.0000 85.3553
v  32.6641 41.4701 85.3553
v  35.3553 55.0000 85.3553
v  32.6641 68.5299 85.3553
v  25.0000 80.0000 85.3553
v  13.5299 87.6641 85.3553
v  -0.0000 101.1940 69.1342
v  -17.6777 97.6777 69.1342
v  -32.6641 87.6641 69.1342
v  -42.6777 72.6777 69.1342
v  -46.1940 55.0000 69.1342
v  -42.6777 37.3223 69.1342
v  -32.6641 22.3359 69.1342
v  -17.6777 12.3223 69.1342
v  0.0000 8.8060 69.1342
v  17.6777 12.3223 69.1342
v  32.6641 22.3359 69.1342
v  42.6777 37.3223 69.1342
v  46.1940 55.0000 69.1342
v  42.6777 72.6777 69.1342
v  32.6640 87.6641 69.1342
v  17.6776 97.6777 69.1342
v  -0.0000 105.0000 50.0000
v  -19.1342 101.1940 50.0000
v  -35.3553 90.3553 50.0000
v  -46.1940 74.1342 50.0000
v  -50.0000 55.0000 50.0000
v  -46.1940 35.8658 50.0000
v  -35.3554 19.6447 50.0000
v  -19.1342 8.8060 50.0000
v  0.0000 5.0000 50.0000
v  19.1342 8.8060 50.0000
v  35.3554 19.6447 50.0000
v  46.1940 35.8659 50.0000
v  50.0000 55.0000 50.0000
v  46.1940 74.1342 50.0000
v  35.3553 90.3554 50.0000
v  19.1341 101.1940 50.0000
v  -0.0000 101.1940 30.8658
v  -17.6777 97.6777 30.8658
v  -32.6641 87.6641 30.8658
v  -42.6777 72.6777 30.8658
v  -46.1940 55.0000 30.8658
v  -42.6777 37.3223 30.8658
v  -32.6641 22.3359 30.8658
v  -17.6777 12.3223 30.8658
v  0.0000 8.8060 30.8658
v  17.6777 12.3223 30.8658
v  32.6641 22.3359 30.8658
v  42.6777 37.3223 30.8658
v  46.1940 55.0000 30.8658
v  42.6777 72.6777 30.8658
v  32.6640 87.6641 30.8658
v  17.6776 97.6777 30.8658
v  -0.0000 90.3553 14.6447
v  -13.5299 87.6641 14.6447
v  -25.0000 80.0000 14.6447
v  -32.6641 68.5299 14.6447
v  -35.3553 55.0000 14.6447
v  -32.6641 41.4701 14.6447
v  -25.0000 30.0000 14.6447
v  -13.5299 22.3359 14.6447
v  0.0000 19.6447 14.6447
v  13.5299 22.3359 14.6447
v  25.0000 30.0000 14.6447
v  32.6641 41.4701 14.6447
v  35.3553 55.0000 14.6447
v  32.6641 68.5299 14.6447
v  25.0000 80.0000 14.6447
v  13.5299 87.6641 14.6447
v  -0.0000 74.1342 3.8060
v  -7.3223 72.6777 3.8060
v  -13.5299 68.5299 3.8060
v  -17.6777 62.3223 3.8060
v  -19.1342 55.0000 3.8060
v  -17.6777 47.6777 3.8060
v  -13.5299 41.4701 3.8060
v  -7.3223 37.3223 3.8060
v  0.0000 35.8658 3.8060
v  7.3223 37.3223 3.8060
v  13.5299 41.4701 3.8060
v  17.6777 47.6777 3.8060
v  19.1342 55.0000 3.8060
v  17.6777 62.3223 3.8060
v  13.5299 68.5299 3.8060
v  7.3223 72.6777 3.8060
v  0.0000 55.0000 0.0000
# 114 vertices

vn -0.0388 0.1949 0.9800
vn -0.1104 0.1653 0.9800
vn -0.1653 0.1104 0.9800
vn -0.1949 0.0388 0.9800
vn -0.1949 -0.0388 0.9800
vn -0.1653 -0.1104 0.9800
vn -0.1104 -0.1653 0.9800
vn -0.0388 -0.1949 0.9800
vn 0.0388 -0.1949 0.9800
vn 0.1104 -0.1653 0.9800
vn 0.1653 -0.1104 0.9800
vn 0.1949 -0.0388 0.9800
vn 0.1949 0.0388 0.9800
vn 0.1653 0.1104 0.9800
vn 0.1104 0.1653 0.9800
vn 0.0388 0.1949 0.9800
vn -0.1098 0.5522 0.8264
vn -0.3128 0.4681 0.8264
vn -0.4681 0.3128 0.8264
vn -0.5522 0.1098 0.8264
vn -0.5522 -0.1098 0.8264
vn -0.4681 -0.3128 0.8264
vn -0.3128 -0.4681 0.8264
vn -0.1098 -0.5522 0.8264
vn 0.1098 -0.5522 0.8264
vn 0.3128 -0.4681 0.8264
vn 0.4681 -0.3128 0.8264
vn 0.5522 -0.1098 0.8264
vn 0.5522 0.1098 0.8264
vn 0.4681 0.3128 0.8264
vn 0.3128 0.4681 0.8264
vn 0.1098 0.5522 0.8264
vn -0.1632 0.8203 0.5481
vn -0.4647 0.6954 0.5481
vn -0.6954 0.4647 0.5481
vn -0.8203 0.1632 0.5481
vn -0.8203 -0.1632 0.5481
vn -0.6954 -0.4647 0.5481
vn -0.4647 -0.6954 0.5481
vn -0.1632 -0.8203 0.5481
vn 0.1632 -0.8203 0.5481
vn 0.4647 -0.6954 0.5481
vn 0.6954 -0.4647 0.5481
vn 0.8203 -0.1632 0.5481
vn 0.8203 0.1632 0.5481
vn 0.6954 0.4647 0.5481
vn 0.4647 0.6954 0.5481
vn 0.1632 0.8203 0.5481
vn -0.1915 0.9626 0.1915
vn -0.5453 0.8161 0.1915
vn -0.8161 0.5453 0.1915
vn -0.9626 0.1915 0.1915
vn -0.9626 -0.1915 0.1915
vn -0.8161 -0.5453 0.1915
vn -0.5453 -0.8161 0.1915
vn -0.1915 -0.9626 0.1915
vn 0.1915 -0.9626 0.1915
vn 0.5453 -0.8161 0.1915
vn 0.8161 -0.5453 0.1915
vn 0.9626 -0.1915 0.1915
vn 0.9626 0.1915 0.1915
vn 0.8161 0.5453 0.1915
vn 0.5453 0.8161 0.1915
vn 0.1915 0.9626 0.1915
vn -0.1915 0.9626 -0.1915
vn -0.5453 0.8161 -0.1915
vn -0.8161 0.5453 -0.1915
vn -0.9626 0.1915 -0.1915
vn -0.9626 -0.1915 -0.1915
vn -0.8161 -0.5453 -0.1915
vn -0.5453 -0.8161 -0.1915
vn -0.1915 -0.9626 -0.1915
vn 0.1915 -0.9626 -0.1915
vn 0.5453 -0.8161 -0.1915
vn 0.8161 -0.5453 -0.1915
vn 0.9626 -0.1915 -0.1915
vn 0.9626 0.1915 -0.1915
vn 0.8161 0.5453 -0.1915
vn 0.5453 0.8161 -0.1915
vn 0.1915 0.9626 -0.1915
vn -0.1632 0.8203 -0.5481
vn -0.4647 0.6954 -0.5481
vn -0.6954 0.4647 -0.5481
vn -0.8203 0.1632 -0.5481
vn -0.8203 -0.1632 -0.5481
vn -0.6954 -0.4647 -0.5481
vn -0.4647 -0.6954 -0.5481
vn -0.1632 -0.8203 -0.5481
vn 0.1632 -0.8203 -0.5481
vn 0.4647 -0.6954 -0.5481
vn 0.6954 -0.4647 -0.5481
vn 0.8203 -0.1632 -0.5481
vn 0.8203 0.1632 -0.5481
vn 0.6954 0.4647 -0.5481
vn 0.4647 0.6954 -0.5481
vn 0.1632 0.8203 -0.5481
vn -0.1098 0.5522 -0.8264
vn -0.3128 0.4681 -0.8264
vn -0.4681 0.3128 -0.8264
vn -0.5522 0.1098 -0.8264
vn -0.5522 -0.1098 -0.8264
vn -0.4681 -0.3128 -0.8264
vn -0.3128 -0.4681 -0.8264
vn -0.1098 -0.5522 -0.8264
vn 0.1098 -0.5522 -0.8264
vn 0.3128 -0.4681 -0.8264
vn 0.4681 -0.3128 -0.8264
vn 0.5522 -0.1098 -0.8264
vn 0.5522 0.1098 -0.8264
vn 0.4681 0.3128 -0.8264
vn 0.3128 0.4681 -0.8264
vn 0.1098 0.5522 -0.8264
vn -0.0388 0.1949 -0.9800
vn -0.1104 0.1653 -0.9800
vn -0.1653 0.1104 -0.9800
vn -0.1949 0.0388 -0.9800
vn -0.1949 -0.0388 -0.9800
vn -0.1653 -0.1104 -0.9800
vn -0.1104 -0.1653 -0.9800
vn -0.0388 -0.1949 -0.9800
vn 0.0388 -0.1949 -0.9800
vn 0.1104 -0.1653 -0.9800
vn 0.1653 -0.1104 -0.9800
vn 0.1949 -0.0388 -0.9800
vn 0.1949 0.0388 -0.9800
vn 0.1653 0.1104 -0.9800
vn 0.1104 0.1653 -0.9800
vn 0.0388 0.1949 -0.9800
# 128 vertex normals

g Sphere01
usemtl 02___Default
f 27//7 28//7 29//7 
f 27//8 29//8 30//8 
f 27//9 30//9 31//9 
f 27//10 31//10 32//10 
f 27//11 32//11 33//11 
f 27//12 33//12 34//12 
f 27//13 34//13 35//13 
f 27//14 35//14 36//14 
f 27//15 36//15 37//15 
f 27//16 37//16 38//16 
f 27//17 38//17 39//17 
f 27//18 39//18 40//18 
f 27//19 40//19 41//19 
f 27//20 41//20 42//20 
f 27//21 42//21 43//21 
f 27//22 43//22 28//22 
f 28//23 44//23 45//23 
f 28//23 45//23 29//23 
f 29//24 45//24 46//24 
f 29//24 46//24 30//24 
f 30//25 46//25 47//25 
f 30//25 47//25 31//25 
f 31//26 47//26 48//26 
f 31//26 48//26 32//26 
f 32//27 48//27 49//27 
f 32//27 49//27 33//27 
f 33//28 49//28 50//28 
f 33//28 50//28 34//28 
f 34//29 50//29 51//29 
f 34//29 51//29 35//29 
f 35//30 51//30 52//30 
f 35//30 52//30 36//30 
f 36//31 52//31 53//31 
f 36//31 53//31 37//31 
f 37//32 53//32 54//32 
f 37//32 54//32 38//32 
f 38//33 54//33 55//33 
f 38//33 55//33 39//33 
f 39//34 55//34 56//34 
f 39//34 56//34 40//34 
f 40//35 56//35 57//35 
f 40//35 57//35 41//35 
f 41//36 57//36 58//36 
f 41//36 58//36 42//36 
f 42//37 58//37 59//37 
f 42//37 59//37 43//37 
f 43//38 59//38 44//38 
f 43//38 44//38 28//38 
f 44//39 60//39 61//39 
f 44//39 61//39 45//39 
f 45//40 61//40 62//40 
f 45//40 62//40 46//40 
f 46//41 62//41 63//41 
f 46//41 63//41 47//41 
f 47//42 63//42 64//42 
f 47//42 64//42 48//42 
f 48//43 64//43 65//43 
f 48//43 65//43 49//43 
f 49//44 65//44 66//44 
f 49//44 66//44 50//44 
f 50//45 66//45 67//45 
f 50//45 67//45 51//45 
f 51//46 67//46 68//46 
f 51//46 68//46 52//46 
f 52//47 68//47 69//47 
f 52//47 69//47 53//47 
f 53//48 69//48 70//48 
f 53//48 70//48 54//48 
f 54//49 70//49 71//49 
f 54//49 71//49 55//49 
f 55//50 71//50 72//50 
f 55//50 72//50 56//50 
f 56//51 72//51 73//51 
f 56//51 73//51 57//51 
f 57//52 73//52 74//52 
f 57//52 74//52 58//52 
f 58//53 74//53 75//53 
f 58//53 75//53 59//53 
f 59//54 75//54 60//54 
f 59//54 60//54 44//54 
f 60//55 76//55 77//55 
f 60//55 77//55 61//55 
f 61//56 77//56 78//56 
f 61//56 78//56 62//56 
f 62//57 78//57 79//57 
f 62//57 79//57 63//57 
f 63//58 79//58 80//58 
f 63//58 80//58 64//58 
f 64//59 80//59 81//59 
f 64//59 81//59 65//59 
f 65//60 81//60 82//60 
f 65//60 82//60 66//60 
f 66//61 82//61 83//61 
f 66//61 83//61 67//61 
f 67//62 83//62 84//62 
f 67//62 84//62 68//62 
f 68//63 84//63 85//63 
f 68//63 85//63 69//63 
f 69//64 85//64 86//64 
f 69//64 86//64 70//64 
f 70//65 86//65 87//65 
f 70//65 87//65 71//65 
f 71//66 87//66 88//66 
f 71//66 88//66 72//66 
f 72//67 88//67 89//67 
f 72//67 89//67 73//67 
f 73//68 89//68 90//68 
f 73//68 90//68 74//68 
f 74//69 90//69 91//69 
f 74//69 91//69 75//69 
f 75//70 91//70 76//70 
f 75//70 76//70 60//70 
f 76//71 92//71 93//71 
f 76//71 93//71 77//71 
f 77//72 93//72 94//72 
f 77//72 94//72 78//72 
f 78//73 94//73 95//73 
f 78//73 95//73 79//73 
f 79//74 95//74 96//74 
f 79//74 96//74 80//74 
f 80//75 96//75 97//75 
f 80//75 97//75 81//75 
f 81//76 97//76 98//76 
f 81//76 98//76 82//76 
f 82//77 98//77 99//77 
f 82//77 99//77 83//77 
f 83//78 99//78 100//78 
f 83//78 100//78 84//78 
f 84//79 100//79 101//79 
f 84//79 101//79 85//79 
f 85//80 101//80 102//80 
f 85//80 102//80 86//80 
f 86//81 102//81 103//81 
f 86//81 103//81 87//81 
f 87//82 103//82 104//82 
f 87//82 104//82 88//82 
f 88//83 104//83 105//83 
f 88//83 105//83 89//83 
f 89//84 105//84 106//84 
f 89//84 106//84 90//84 
f 90//85 106//85 107//85 
f 90//85 107//85 91//85 
f 91//86 107//86 92//86 
f 91//86 92//86 76//86 
f 92//87 108//87 109//87 
f 92//87 109//87 93//87 
f 93//88 109//88 110//88 
f 93//88 110//88 94//88 
f 94//89 110//89 111//89 
f 94//89 111//89 95//89 
f 95//90 111//90 112//90 
f 95//90 112//90 96//90 
f 96//91 112//91 113//91 
f 96//91 113//91 97//91 
f 97//92 113//92 114//92 
f 97//92 114//92 98//92 
f 98//93 114//93 115//93 
f 98//93 115//93 99//93 
f 99//94 115//94 116//94 
f 99//94 116//94 100//94 
f 100//95 116//95 117//95 
f 100//95 117//95 101//95 
f 101//96 117//96 118//96 
f 101//96 118//96 102//96 
f 102//97 118//97 119//97 
f 102//97 119//97 103//97 
f 103//98 119//98 120//98 
f 103//98 120//98 104//98 
f 104//99 120//99 121//99 
f 104//99 121//99 105//99 
f 105//100 121//100 122//100 
f 105//100 122//100 106//100 
f 106//101 122//101 123//101 
f 106//101 123//101 107//101 
f 107//102 123//102 108//102 
f 107//102 108//102 92//102 
f 108//103 124//103 125//103 
f 108//103 125//103 109//103 
f 109//104 125//104 126//104 
f 109//104 126//104 110//104 
f 110//105 126//105 127//105 
f 110//105 127//105 111//105 
f 111//106 127//106 128//106 
f 111//106 128//106 112//106 
f 112//107 128//107 129//107 
f 112//107 129//107 113//107 
f 113//108 129//108 130//108 
f 113//108 130//108 114//108 
f 114//109 130//109 131//109 
f 114//109 131//109 115//109 
f 115//110 131//110 132//110 
f 115//110 132//110 116//110 
f 116//111 132//111 133//111 
f 116//111 133//111 117//111 
f 117//112 133//112 134//112 
f 117//112 134//112 118//112 
f 118//113 134//113 135//113 
f 118//113 135//113 119//113 
f 119//114 135//114 136//114 
f 119//114 136//114 120//114 
f 120//115 136//115 137//115 
f 120//115 137//115 121//115 
f 121//116 137//116 138//116 
f 121//116 138//116 122//116 
f 122//117 138//117 139//117 
f 122//117 139//117 123//117 
f 123//118 139//118 124//118 
f 123//118 124//118 108//118 
f 140//119 125//119 124//119 
f 140//120 126//120 125//120 
f 140//121 127//121 126//121 
f 140//122 128//122 127//122 
f 140//123 129//123 128//123 
f 140//124 130//124 129//124 
f 140//125 131//125 130//125 
f 140//126 132//126 131//126 
f 140//127 133//127 132//127 
f 140//128 134//128 133//128 
f 140//129 135//129 134//129 
f 140//130 136//130 135//130 
f 140//131 137//131 136//131 
f 140//132 138//132 137//132 
f 140//133 139//133 138//133 
f 140//134 124//134 139//134 
# 224 faces

#
# object Plane01
#

v  -1519.6272 1052.0496 0.0000
v  -1519.6272 -1052.0496 0.0000
v  1519.6272 1052.0496 0.0000
v  1519.6272 -1052.0496 0.0000
# 4 vertices

vn 0.0000 0.0000 1.0000
# 1 vertex normals

g Plane01
usemtl 01___Default
f 141//135 142//135 143//135 
f 144//135 143//135 142//135 
# 2 faces

#luz puntual numero 1
#el proximo vertice es la posicion
v 0.0000 0.0000 210.0000
usemtl light_material
lp -1

#luz puntual numero 2
#el proximo vertice es la posicion
v 0.0000 -150.0000 210.0000
usemtl light_material
lp -1

#Camara
v 0.0000 0.0000 0.0000
v 375.0000 0.0000 87.0000
vn 0.0000 0.0000 1.0000
#posicion target up
c -1 -2 -1

#PLANO DE VISTA!!!
#se utiliza el light quad para levantar el plano de vista.
#cada uno de los siguientes cuatro vertices son las esquinas del plano de vista.
v 137.0000 -195.0000 161.0000
v 137.0000 178.0000 161.0000 
v 167.0000 -195.0000 -69.0000
lq -3 -2 -1 -1