# 3ds Max Wavefront OBJ Exporter v0.94b - (c)2007 guruware
# File Created: 17.07.2010 20:37:52

mtllib cajaEsfera.mtl

#
# object Box01
#

v  -50.0000 -120.0000 0.0000
v  -50.0000 -86.6667 0.0000
v  -16.6667 -86.6667 0.0000
v  -16.6667 -120.0000 0.0000
v  16.6667 -86.6667 0.0000
v  16.6667 -120.0000 0.0000
v  50.0000 -86.6667 0.0000
v  50.0000 -120.0000 0.0000
v  -50.0000 -53.3333 0.0000
v  -16.6667 -53.3333 0.0000
v  16.6667 -53.3333 0.0000
v  50.0000 -53.3333 0.0000
v  -50.0000 -20.0000 0.0000
v  -16.6667 -20.0000 0.0000
v  16.6667 -20.0000 0.0000
v  50.0000 -20.0000 0.0000
v  -50.0000 -120.0000 100.0000
v  -16.6667 -120.0000 100.0000
v  -16.6667 -86.6667 100.0000
v  -50.0000 -86.6667 100.0000
v  16.6667 -120.0000 100.0000
v  16.6667 -86.6667 100.0000
v  50.0000 -120.0000 100.0000
v  50.0000 -86.6667 100.0000
v  -16.6667 -53.3333 100.0000
v  -50.0000 -53.3333 100.0000
v  16.6667 -53.3333 100.0000
v  50.0000 -53.3333 100.0000
v  -16.6667 -20.0000 100.0000
v  -50.0000 -20.0000 100.0000
v  16.6667 -20.0000 100.0000
v  50.0000 -20.0000 100.0000
v  -16.6667 -120.0000 33.3333
v  -50.0000 -120.0000 33.3333
v  16.6667 -120.0000 33.3333
v  50.0000 -120.0000 33.3333
v  -16.6667 -120.0000 66.6667
v  -50.0000 -120.0000 66.6667
v  16.6667 -120.0000 66.6667
v  50.0000 -120.0000 66.6667
v  50.0000 -86.6667 33.3333
v  50.0000 -53.3333 33.3333
v  50.0000 -20.0000 33.3333
v  50.0000 -86.6667 66.6667
v  50.0000 -53.3333 66.6667
v  50.0000 -20.0000 66.6667
v  16.6667 -20.0000 33.3333
v  -16.6667 -20.0000 33.3333
v  -50.0000 -20.0000 33.3333
v  16.6667 -20.0000 66.6667
v  -16.6667 -20.0000 66.6667
v  -50.0000 -20.0000 66.6667
v  -50.0000 -53.3333 33.3333
v  -50.0000 -86.6667 33.3333
v  -50.0000 -53.3333 66.6667
v  -50.0000 -86.6667 66.6667
# 56 vertices

vn 0.0000 0.0000 -1.0000
vn 0.0000 0.0000 1.0000
vn 0.0000 -1.0000 0.0000
vn 1.0000 0.0000 -0.0000
vn 1.0000 0.0000 0.0000
vn 0.0000 1.0000 -0.0000
vn 0.0000 1.0000 0.0000
vn -1.0000 0.0000 0.0000
# 8 vertex normals

g Box01
usemtl 03___Default
f 1//1 2//1 3//1 
f 3//1 4//1 1//1 
f 4//1 3//1 5//1 
f 5//1 6//1 4//1 
f 6//1 5//1 7//1 
f 7//1 8//1 6//1 
f 2//1 9//1 10//1 
f 10//1 3//1 2//1 
f 3//1 10//1 11//1 
f 11//1 5//1 3//1 
f 5//1 11//1 12//1 
f 12//1 7//1 5//1 
f 9//1 13//1 14//1 
f 14//1 10//1 9//1 
f 10//1 14//1 15//1 
f 15//1 11//1 10//1 
f 11//1 15//1 16//1 
f 16//1 12//1 11//1 
f 17//2 18//2 19//2 
f 19//2 20//2 17//2 
f 18//2 21//2 22//2 
f 22//2 19//2 18//2 
f 21//2 23//2 24//2 
f 24//2 22//2 21//2 
f 20//2 19//2 25//2 
f 25//2 26//2 20//2 
f 19//2 22//2 27//2 
f 27//2 25//2 19//2 
f 22//2 24//2 28//2 
f 28//2 27//2 22//2 
f 26//2 25//2 29//2 
f 29//2 30//2 26//2 
f 25//2 27//2 31//2 
f 31//2 29//2 25//2 
f 27//2 28//2 32//2 
f 32//2 31//2 27//2 
f 1//3 4//3 33//3 
f 33//3 34//3 1//3 
f 4//3 6//3 35//3 
f 35//3 33//3 4//3 
f 6//3 8//3 36//3 
f 36//3 35//3 6//3 
f 34//3 33//3 37//3 
f 37//3 38//3 34//3 
f 33//3 35//3 39//3 
f 39//3 37//3 33//3 
f 35//3 36//3 40//3 
f 40//3 39//3 35//3 
f 38//3 37//3 18//3 
f 18//3 17//3 38//3 
f 37//3 39//3 21//3 
f 21//3 18//3 37//3 
f 39//3 40//3 23//3 
f 23//3 21//3 39//3 
f 8//4 7//4 41//4 
f 41//4 36//4 8//4 
f 7//4 12//4 42//4 
f 42//4 41//4 7//4 
f 12//4 16//4 43//4 
f 43//4 42//4 12//4 
f 36//4 41//4 44//5 
f 44//5 40//5 36//4 
f 41//4 42//4 45//5 
f 45//5 44//5 41//4 
f 42//4 43//4 46//5 
f 46//5 45//5 42//4 
f 40//5 44//5 24//5 
f 24//5 23//5 40//5 
f 44//5 45//5 28//5 
f 28//5 24//5 44//5 
f 45//5 46//5 32//5 
f 32//5 28//5 45//5 
f 16//6 15//6 47//6 
f 47//6 43//6 16//6 
f 15//6 14//6 48//6 
f 48//6 47//6 15//6 
f 14//6 13//6 49//6 
f 49//6 48//6 14//6 
f 43//6 47//6 50//7 
f 50//7 46//7 43//6 
f 47//6 48//6 51//7 
f 51//7 50//7 47//6 
f 48//6 49//6 52//7 
f 52//7 51//7 48//6 
f 46//7 50//7 31//7 
f 31//7 32//7 46//7 
f 50//7 51//7 29//7 
f 29//7 31//7 50//7 
f 51//7 52//7 30//7 
f 30//7 29//7 51//7 
f 13//8 9//8 53//8 
f 53//8 49//8 13//8 
f 9//8 2//8 54//8 
f 54//8 53//8 9//8 
f 2//8 1//8 34//8 
f 34//8 54//8 2//8 
f 49//8 53//8 55//8 
f 55//8 52//8 49//8 
f 53//8 54//8 56//8 
f 56//8 55//8 53//8 
f 54//8 34//8 38//8 
f 38//8 56//8 54//8 
f 52//8 55//8 26//8 
f 26//8 30//8 52//8 
f 55//8 56//8 20//8 
f 20//8 26//8 55//8 
f 56//8 38//8 17//8 
f 17//8 20//8 56//8 
# 108 faces

#
# object Sphere01
#

v  0.0000 55.0000 100.0000
v  -0.0000 73.0621 96.6236
v  -6.5248 71.8424 96.6236
v  -12.1683 68.3480 96.6236
v  -16.1685 63.0510 96.6236
v  -17.9850 56.6666 96.6236
v  -17.3726 50.0571 96.6236
v  -14.4139 44.1152 96.6236
v  -9.5085 39.6433 96.6236
v  -3.3189 37.2455 96.6236
v  3.3189 37.2455 96.6236
v  9.5085 39.6433 96.6236
v  14.4139 44.1152 96.6236
v  17.3726 50.0571 96.6236
v  17.9850 56.6666 96.6236
v  16.1685 63.0510 96.6236
v  12.1683 68.3481 96.6236
v  6.5247 71.8424 96.6236
v  -0.0000 88.6848 86.9504
v  -12.1683 86.4101 86.9504
v  -22.6933 79.8934 86.9504
v  -30.1534 70.0146 86.9504
v  -33.5411 58.1080 86.9504
v  -32.3989 45.7817 86.9504
v  -26.8810 34.7004 86.9504
v  -17.7327 26.3606 86.9504
v  -6.1895 21.8888 86.9504
v  6.1896 21.8888 86.9504
v  17.7328 26.3606 86.9504
v  26.8811 34.7004 86.9504
v  32.3989 45.7818 86.9504
v  33.5411 58.1081 86.9504
v  30.1534 70.0146 86.9504
v  22.6932 79.8934 86.9504
v  12.1683 86.4101 86.9504
v  -0.0000 99.7582 72.2869
v  -16.1685 96.7357 72.2869
v  -30.1534 88.0767 72.2869
v  -40.0659 74.9504 72.2869
v  -44.5672 59.1298 72.2869
v  -43.0495 42.7513 72.2869
v  -35.7178 28.0272 72.2869
v  -23.5621 16.9458 72.2869
v  -8.2243 11.0039 72.2869
v  8.2243 11.0039 72.2869
v  23.5622 16.9459 72.2869
v  35.7178 28.0272 72.2869
v  43.0496 42.7514 72.2869
v  44.5672 59.1298 72.2869
v  40.0658 74.9505 72.2869
v  30.1533 88.0767 72.2869
v  16.1684 96.7358 72.2869
v  -0.0000 104.7867 54.6134
v  -17.9850 101.4247 54.6134
v  -33.5411 91.7928 54.6134
v  -44.5672 77.1918 54.6134
v  -49.5743 59.5937 54.6134
v  -47.8861 41.3752 54.6134
v  -39.7307 24.9968 54.6134
v  -26.2093 12.6705 54.6134
v  -9.1483 6.0610 54.6134
v  9.1483 6.0610 54.6134
v  26.2094 12.6705 54.6134
v  39.7307 24.9968 54.6134
v  47.8862 41.3753 54.6134
v  49.5743 59.5938 54.6134
v  44.5672 77.1919 54.6134
v  33.5410 91.7929 54.6134
v  17.9849 101.4248 54.6134
v  -0.0000 103.0913 36.3169
v  -17.3726 99.8438 36.3169
v  -32.3989 90.5399 36.3169
v  -43.0496 76.4361 36.3169
v  -47.8861 59.4373 36.3169
v  -46.2554 41.8392 36.3169
v  -38.3777 26.0185 36.3169
v  -25.3168 14.1120 36.3169
v  -8.8367 7.7276 36.3169
v  8.8368 7.7276 36.3169
v  25.3168 14.1120 36.3169
v  38.3777 26.0186 36.3169
v  46.2554 41.8393 36.3169
v  47.8861 59.4374 36.3169
v  43.0495 76.4362 36.3169
v  32.3988 90.5399 36.3169
v  17.3725 99.8438 36.3169
v  -0.0000 94.9009 19.8683
v  -14.4139 92.2064 19.8683
v  -26.8810 84.4871 19.8683
v  -35.7178 72.7853 19.8683
v  -39.7307 58.6816 19.8683
v  -38.3777 44.0806 19.8683
v  -31.8416 30.9544 19.8683
v  -21.0051 21.0756 19.8683
v  -7.3317 15.7785 19.8683
v  7.3318 15.7785 19.8683
v  21.0051 21.0756 19.8683
v  31.8416 30.9544 19.8683
v  38.3777 44.0807 19.8683
v  39.7306 58.6816 19.8683
v  35.7178 72.7854 19.8683
v  26.8810 84.4871 19.8683
v  14.4138 92.2065 19.8683
v  -0.0000 81.3216 7.4891
v  -9.5085 79.5442 7.4891
v  -17.7328 74.4519 7.4891
v  -23.5621 66.7326 7.4891
v  -26.2093 57.4286 7.4891
v  -25.3168 47.7967 7.4891
v  -21.0051 39.1377 7.4891
v  -13.8565 32.6209 7.4891
v  -4.8366 29.1266 7.4891
v  4.8366 29.1266 7.4891
v  13.8566 32.6209 7.4891
v  21.0051 39.1377 7.4891
v  25.3168 47.7968 7.4891
v  26.2093 57.4287 7.4891
v  23.5621 66.7326 7.4891
v  17.7327 74.4519 7.4891
v  9.5084 79.5442 7.4891
v  0.0000 55.0000 0.0000
# 121 vertices

vn -0.0343 0.1836 0.9824
vn -0.0983 0.1588 0.9824
vn -0.1491 0.1126 0.9824
vn -0.1797 0.0511 0.9824
vn -0.1860 -0.0172 0.9824
vn -0.1672 -0.0833 0.9824
vn -0.1259 -0.1381 0.9824
vn -0.0675 -0.1742 0.9824
vn 0.0000 -0.1868 0.9824
vn 0.0675 -0.1742 0.9824
vn 0.1259 -0.1381 0.9824
vn 0.1672 -0.0833 0.9824
vn 0.1860 -0.0172 0.9824
vn 0.1797 0.0511 0.9824
vn 0.1491 0.1126 0.9824
vn 0.0983 0.1588 0.9824
vn 0.0343 0.1836 0.9824
vn -0.0979 0.5239 0.8461
vn -0.2806 0.4531 0.8461
vn -0.4253 0.3212 0.8461
vn -0.5126 0.1459 0.8461
vn -0.5307 -0.0492 0.8461
vn -0.4771 -0.2376 0.8461
vn -0.3591 -0.3939 0.8461
vn -0.1925 -0.4970 0.8461
vn 0.0000 -0.5330 0.8461
vn 0.1925 -0.4970 0.8461
vn 0.3591 -0.3939 0.8461
vn 0.4771 -0.2376 0.8461
vn 0.5307 -0.0492 0.8461
vn 0.5126 0.1459 0.8461
vn 0.4253 0.3212 0.8461
vn 0.2806 0.4531 0.8461
vn 0.0979 0.5239 0.8461
vn -0.1475 0.7893 0.5960
vn -0.4227 0.6827 0.5960
vn -0.6408 0.4839 0.5960
vn -0.7723 0.2197 0.5960
vn -0.7995 -0.0741 0.5960
vn -0.7188 -0.3579 0.5960
vn -0.5409 -0.5934 0.5960
vn -0.2901 -0.7487 0.5960
vn 0.0000 -0.8030 0.5960
vn 0.2901 -0.7487 0.5960
vn 0.5409 -0.5934 0.5960
vn 0.7188 -0.3579 0.5960
vn 0.7995 -0.0741 0.5960
vn 0.7723 0.2197 0.5960
vn 0.6408 0.4839 0.5960
vn 0.4227 0.6827 0.5960
vn 0.1475 0.7893 0.5960
vn -0.1770 0.9466 0.2693
vn -0.5070 0.8188 0.2693
vn -0.7685 0.5804 0.2693
vn -0.9263 0.2635 0.2693
vn -0.9589 -0.0889 0.2693
vn -0.8621 -0.4293 0.2693
vn -0.6488 -0.7117 0.2693
vn -0.3479 -0.8980 0.2693
vn 0.0000 -0.9630 0.2693
vn 0.3479 -0.8980 0.2693
vn 0.6488 -0.7117 0.2693
vn 0.8621 -0.4293 0.2693
vn 0.9589 -0.0889 0.2693
vn 0.9263 0.2636 0.2693
vn 0.7685 0.5804 0.2693
vn 0.5070 0.8188 0.2693
vn 0.1770 0.9466 0.2693
vn -0.1830 0.9789 -0.0907
vn -0.5243 0.8467 -0.0907
vn -0.7947 0.6002 -0.0907
vn -0.9579 0.2725 -0.0907
vn -0.9916 -0.0919 -0.0907
vn -0.8915 -0.4439 -0.0907
vn -0.6709 -0.7360 -0.0907
vn -0.3598 -0.9286 -0.0907
vn 0.0000 -0.9959 -0.0907
vn 0.3598 -0.9286 -0.0907
vn 0.6709 -0.7360 -0.0907
vn 0.8915 -0.4439 -0.0907
vn 0.9916 -0.0919 -0.0907
vn 0.9579 0.2725 -0.0907
vn 0.7947 0.6002 -0.0907
vn 0.5243 0.8467 -0.0907
vn 0.1830 0.9789 -0.0907
vn -0.1650 0.8829 -0.4396
vn -0.4728 0.7636 -0.4396
vn -0.7168 0.5413 -0.4396
vn -0.8639 0.2458 -0.4396
vn -0.8943 -0.0829 -0.4396
vn -0.8040 -0.4004 -0.4396
vn -0.6051 -0.6638 -0.4396
vn -0.3245 -0.8375 -0.4396
vn 0.0000 -0.8982 -0.4396
vn 0.3245 -0.8375 -0.4396
vn 0.6051 -0.6638 -0.4396
vn 0.8040 -0.4004 -0.4396
vn 0.8943 -0.0829 -0.4396
vn 0.8639 0.2458 -0.4396
vn 0.7168 0.5413 -0.4396
vn 0.4728 0.7636 -0.4396
vn 0.1650 0.8829 -0.4396
vn -0.1249 0.6684 -0.7332
vn -0.3580 0.5781 -0.7332
vn -0.5426 0.4098 -0.7332
vn -0.6540 0.1861 -0.7332
vn -0.6771 -0.0627 -0.7332
vn -0.6087 -0.3031 -0.7332
vn -0.4581 -0.5025 -0.7332
vn -0.2456 -0.6341 -0.7332
vn 0.0000 -0.6800 -0.7332
vn 0.2456 -0.6341 -0.7332
vn 0.4581 -0.5025 -0.7332
vn 0.6087 -0.3031 -0.7332
vn 0.6771 -0.0627 -0.7332
vn 0.6540 0.1861 -0.7332
vn 0.5426 0.4098 -0.7332
vn 0.3580 0.5781 -0.7332
vn 0.1249 0.6684 -0.7332
vn -0.0511 0.2733 -0.9606
vn -0.1464 0.2364 -0.9606
vn -0.2219 0.1676 -0.9606
vn -0.2674 0.0761 -0.9606
vn -0.2769 -0.0257 -0.9606
vn -0.2489 -0.1239 -0.9606
vn -0.1873 -0.2055 -0.9606
vn -0.1004 -0.2593 -0.9606
vn 0.0000 -0.2780 -0.9606
vn 0.1004 -0.2593 -0.9606
vn 0.1873 -0.2055 -0.9606
vn 0.2489 -0.1239 -0.9606
vn 0.2769 -0.0257 -0.9606
vn 0.2674 0.0761 -0.9606
vn 0.2219 0.1676 -0.9606
vn 0.1464 0.2364 -0.9606
vn 0.0511 0.2733 -0.9606
# 136 vertex normals

g Sphere01
usemtl 02___Default
f 57//9 58//9 59//9 
f 57//10 59//10 60//10 
f 57//11 60//11 61//11 
f 57//12 61//12 62//12 
f 57//13 62//13 63//13 
f 57//14 63//14 64//14 
f 57//15 64//15 65//15 
f 57//16 65//16 66//16 
f 57//17 66//17 67//17 
f 57//18 67//18 68//18 
f 57//19 68//19 69//19 
f 57//20 69//20 70//20 
f 57//21 70//21 71//21 
f 57//22 71//22 72//22 
f 57//23 72//23 73//23 
f 57//24 73//24 74//24 
f 57//25 74//25 58//25 
f 58//26 75//26 76//26 
f 58//26 76//26 59//26 
f 59//27 76//27 77//27 
f 59//27 77//27 60//27 
f 60//28 77//28 78//28 
f 60//28 78//28 61//28 
f 61//29 78//29 79//29 
f 61//29 79//29 62//29 
f 62//30 79//30 80//30 
f 62//30 80//30 63//30 
f 63//31 80//31 81//31 
f 63//31 81//31 64//31 
f 64//32 81//32 82//32 
f 64//32 82//32 65//32 
f 65//33 82//33 83//33 
f 65//33 83//33 66//33 
f 66//34 83//34 84//34 
f 66//34 84//34 67//34 
f 67//35 84//35 85//35 
f 67//35 85//35 68//35 
f 68//36 85//36 86//36 
f 68//36 86//36 69//36 
f 69//37 86//37 87//37 
f 69//37 87//37 70//37 
f 70//38 87//38 88//38 
f 70//38 88//38 71//38 
f 71//39 88//39 89//39 
f 71//39 89//39 72//39 
f 72//40 89//40 90//40 
f 72//40 90//40 73//40 
f 73//41 90//41 91//41 
f 73//41 91//41 74//41 
f 74//42 91//42 75//42 
f 74//42 75//42 58//42 
f 75//43 92//43 93//43 
f 75//43 93//43 76//43 
f 76//44 93//44 94//44 
f 76//44 94//44 77//44 
f 77//45 94//45 95//45 
f 77//45 95//45 78//45 
f 78//46 95//46 96//46 
f 78//46 96//46 79//46 
f 79//47 96//47 97//47 
f 79//47 97//47 80//47 
f 80//48 97//48 98//48 
f 80//48 98//48 81//48 
f 81//49 98//49 99//49 
f 81//49 99//49 82//49 
f 82//50 99//50 100//50 
f 82//50 100//50 83//50 
f 83//51 100//51 101//51 
f 83//51 101//51 84//51 
f 84//52 101//52 102//52 
f 84//52 102//52 85//52 
f 85//53 102//53 103//53 
f 85//53 103//53 86//53 
f 86//54 103//54 104//54 
f 86//54 104//54 87//54 
f 87//55 104//55 105//55 
f 87//55 105//55 88//55 
f 88//56 105//56 106//56 
f 88//56 106//56 89//56 
f 89//57 106//57 107//57 
f 89//57 107//57 90//57 
f 90//58 107//58 108//58 
f 90//58 108//58 91//58 
f 91//59 108//59 92//59 
f 91//59 92//59 75//59 
f 92//60 109//60 110//60 
f 92//60 110//60 93//60 
f 93//61 110//61 111//61 
f 93//61 111//61 94//61 
f 94//62 111//62 112//62 
f 94//62 112//62 95//62 
f 95//63 112//63 113//63 
f 95//63 113//63 96//63 
f 96//64 113//64 114//64 
f 96//64 114//64 97//64 
f 97//65 114//65 115//65 
f 97//65 115//65 98//65 
f 98//66 115//66 116//66 
f 98//66 116//66 99//66 
f 99//67 116//67 117//67 
f 99//67 117//67 100//67 
f 100//68 117//68 118//68 
f 100//68 118//68 101//68 
f 101//69 118//69 119//69 
f 101//69 119//69 102//69 
f 102//70 119//70 120//70 
f 102//70 120//70 103//70 
f 103//71 120//71 121//71 
f 103//71 121//71 104//71 
f 104//72 121//72 122//72 
f 104//72 122//72 105//72 
f 105//73 122//73 123//73 
f 105//73 123//73 106//73 
f 106//74 123//74 124//74 
f 106//74 124//74 107//74 
f 107//75 124//75 125//75 
f 107//75 125//75 108//75 
f 108//76 125//76 109//76 
f 108//76 109//76 92//76 
f 109//77 126//77 127//77 
f 109//77 127//77 110//77 
f 110//78 127//78 128//78 
f 110//78 128//78 111//78 
f 111//79 128//79 129//79 
f 111//79 129//79 112//79 
f 112//80 129//80 130//80 
f 112//80 130//80 113//80 
f 113//81 130//81 131//81 
f 113//81 131//81 114//81 
f 114//82 131//82 132//82 
f 114//82 132//82 115//82 
f 115//83 132//83 133//83 
f 115//83 133//83 116//83 
f 116//84 133//84 134//84 
f 116//84 134//84 117//84 
f 117//85 134//85 135//85 
f 117//85 135//85 118//85 
f 118//86 135//86 136//86 
f 118//86 136//86 119//86 
f 119//87 136//87 137//87 
f 119//87 137//87 120//87 
f 120//88 137//88 138//88 
f 120//88 138//88 121//88 
f 121//89 138//89 139//89 
f 121//89 139//89 122//89 
f 122//90 139//90 140//90 
f 122//90 140//90 123//90 
f 123//91 140//91 141//91 
f 123//91 141//91 124//91 
f 124//92 141//92 142//92 
f 124//92 142//92 125//92 
f 125//93 142//93 126//93 
f 125//93 126//93 109//93 
f 126//94 143//94 144//94 
f 126//94 144//94 127//94 
f 127//95 144//95 145//95 
f 127//95 145//95 128//95 
f 128//96 145//96 146//96 
f 128//96 146//96 129//96 
f 129//97 146//97 147//97 
f 129//97 147//97 130//97 
f 130//98 147//98 148//98 
f 130//98 148//98 131//98 
f 131//99 148//99 149//99 
f 131//99 149//99 132//99 
f 132//100 149//100 150//100 
f 132//100 150//100 133//100 
f 133//101 150//101 151//101 
f 133//101 151//101 134//101 
f 134//102 151//102 152//102 
f 134//102 152//102 135//102 
f 135//103 152//103 153//103 
f 135//103 153//103 136//103 
f 136//104 153//104 154//104 
f 136//104 154//104 137//104 
f 137//105 154//105 155//105 
f 137//105 155//105 138//105 
f 138//106 155//106 156//106 
f 138//106 156//106 139//106 
f 139//107 156//107 157//107 
f 139//107 157//107 140//107 
f 140//108 157//108 158//108 
f 140//108 158//108 141//108 
f 141//109 158//109 159//109 
f 141//109 159//109 142//109 
f 142//110 159//110 143//110 
f 142//110 143//110 126//110 
f 143//111 160//111 161//111 
f 143//111 161//111 144//111 
f 144//112 161//112 162//112 
f 144//112 162//112 145//112 
f 145//113 162//113 163//113 
f 145//113 163//113 146//113 
f 146//114 163//114 164//114 
f 146//114 164//114 147//114 
f 147//115 164//115 165//115 
f 147//115 165//115 148//115 
f 148//116 165//116 166//116 
f 148//116 166//116 149//116 
f 149//117 166//117 167//117 
f 149//117 167//117 150//117 
f 150//118 167//118 168//118 
f 150//118 168//118 151//118 
f 151//119 168//119 169//119 
f 151//119 169//119 152//119 
f 152//120 169//120 170//120 
f 152//120 170//120 153//120 
f 153//121 170//121 171//121 
f 153//121 171//121 154//121 
f 154//122 171//122 172//122 
f 154//122 172//122 155//122 
f 155//123 172//123 173//123 
f 155//123 173//123 156//123 
f 156//124 173//124 174//124 
f 156//124 174//124 157//124 
f 157//125 174//125 175//125 
f 157//125 175//125 158//125 
f 158//126 175//126 176//126 
f 158//126 176//126 159//126 
f 159//127 176//127 160//127 
f 159//127 160//127 143//127 
f 177//128 161//128 160//128 
f 177//129 162//129 161//129 
f 177//130 163//130 162//130 
f 177//131 164//131 163//131 
f 177//132 165//132 164//132 
f 177//133 166//133 165//133 
f 177//134 167//134 166//134 
f 177//135 168//135 167//135 
f 177//136 169//136 168//136 
f 177//137 170//137 169//137 
f 177//138 171//138 170//138 
f 177//139 172//139 171//139 
f 177//140 173//140 172//140 
f 177//141 174//141 173//141 
f 177//142 175//142 174//142 
f 177//143 176//143 175//143 
f 177//144 160//144 176//144 
# 238 faces

#
# object Plane01
#

v  -1519.6272 1052.0496 0.0000
v  -1519.6272 -1052.0496 0.0000
v  1519.6272 1052.0496 0.0000
v  1519.6272 -1052.0496 0.0000
# 4 vertices

vn 0.0000 0.0000 1.0000
# 1 vertex normals

g Plane01
usemtl 01___Default
f 178//145 179//145 180//145 
f 181//145 180//145 179//145 
# 2 faces

#luz puntual numero 1
#el proximo vertice es la posicion
v 0.0000 0.0000 210.0000
usemtl light_material
lp -1

#luz puntual numero 2
#el proximo vertice es la posicion
v 0.0000 -150.0000 210.0000
usemtl light_material
lp -1

#Camara
v 0.0000 0.0000 0.0000
v 375.0000 0.0000 87.0000
vn 0.0000 0.0000 1.0000
#posicion target up
c -1 -2 -1

#PLANO DE VISTA!!!
#se utiliza el light quad para levantar el plano de vista.
#cada uno de los siguientes cuatro vertices son las esquinas del plano de vista.
v 137.0000 -195.0000 161.0000
v 137.0000 178.0000 161.0000 
v 167.0000 -195.0000 -69.0000
lq -3 -2 -1 -1