# 3ds Max Wavefront OBJ Exporter v0.94b - (c)2007 guruware
# File Created: 13.08.2009 20:29:02

mtllib caja.mtl

#
# object Box01
#

v  20.0000 -20.0000 0.0000
v  20.0000 20.0000 0.0000
v  -20.0000 -20.0000 0.0000
v  -20.0000 20.0000 0.0000
v  -20.0000 20.0000 60.0000
v  20.0000 20.0000 60.0000
v  -20.0000 -20.0000 60.0000
v  20.0000 -20.0000 60.0000
# 8 vertices

vn 0.0000 0.0000 1.0000
vn 0.0000 -1.0000 0.0000
vn 1.0000 0.0000 0.0000
vn -0.0000 1.0000 0.0000
# 4 vertex normals

g Box01
usemtl wire_145028177
f 1//1 2//1 3//1 
f 4//1 3//1 2//1 
#usemtl Material__28
f 4//2 2//2 5//2 
f 6//2 5//2 2//2 
#usemtl wire_145028177
f 3//3 4//3 7//3 
f 5//3 7//3 4//3 
#usemtl Material__29
f 1//4 3//4 8//4 
f 7//4 8//4 3//4 
# 8 faces

#
# object Box02
#

v  -8.5397 -6.9026 18.4065
v  -8.5397 6.9026 18.4065
v  8.5397 6.9026 18.4065
v  8.5397 -6.9026 18.4065
v  -8.5397 -6.9026 29.2954
v  8.5397 -6.9026 29.2954
v  8.5397 6.9026 29.2954
v  -8.5397 6.9026 29.2954
# 8 vertices

vn 0.0000 0.0000 -1.0000
vn 0.0000 0.0000 1.0000
vn 0.0000 -1.0000 0.0000
vn 1.0000 0.0000 0.0000
vn 0.0000 1.0000 0.0000
vn -1.0000 0.0000 0.0000
# 6 vertex normals

g Box02
usemtl Material__3
f 9//5 10//5 11//5 
f 11//5 12//5 9//5 
#usemtl Material__2
f 13//6 14//6 15//6 
f 15//6 16//6 13//6 
#usemtl Material__6
f 9//7 12//7 14//7 
f 14//7 13//7 9//7 
#usemtl wire_145028177
f 12//8 11//8 15//8 
f 15//8 14//8 12//8 
#usemtl Material__7
f 11//9 10//9 16//9 
f 16//9 15//9 11//9 
#usemtl Material__4
f 10//10 9//10 13//10 
f 13//10 16//10 10//10 
# 12 faces

#luz puntual numero 1
#el proximo vertice es la posicion
v 0.0000 0.0000 60.0000
usemtl light_material
lp -1

#Camara
v 0.0000 0.0000 0.0000
v 80.0000 0.0000 20.0000
vn 0.0000 0.0000 1.0000
#posicion target up
c -1 -2 -1

#PLANO DE VISTA!!!
#se utiliza el light quad para levantar el plano de vista.
#cada uno de los siguientes cuatro vertices son las esquinas del plano de vista.
v 40 -20 40
v 40 20 40
v 40 -20 0
lq -3 -2 -1 -1