# 3ds Max Wavefront OBJ Exporter v0.94b - (c)2007 guruware
# File Created: 15.07.2010 07:43:21

mtllib cajaEsfera.mtl

#
# object Box01
#

v  -50.0000 -120.0000 0.0000
v  -50.0000 -20.0000 0.0000
v  50.0000 -20.0000 0.0000
v  50.0000 -120.0000 0.0000
v  -50.0000 -120.0000 100.0000
v  50.0000 -120.0000 100.0000
v  50.0000 -20.0000 100.0000
v  -50.0000 -20.0000 100.0000
# 8 vertices

vn 0.0000 0.0000 -1.0000
vn 0.0000 0.0000 1.0000
vn 0.0000 -1.0000 0.0000
vn 1.0000 0.0000 0.0000
vn 0.0000 1.0000 0.0000
vn -1.0000 0.0000 0.0000
# 6 vertex normals

g Box01
usemtl 03___Default
f 1//1 2//1 3//1 
f 3//1 4//1 1//1 
f 5//2 6//2 7//2 
f 7//2 8//2 5//2 
f 1//3 4//3 6//3 
f 6//3 5//3 1//3 
f 4//4 3//4 7//4 
f 7//4 6//4 4//4 
f 3//5 2//5 8//5 
f 8//5 7//5 3//5 
f 2//6 1//6 5//6 
f 5//6 8//6 2//6 
# 12 faces

#
# object Sphere01
#

v  0.0000 55.0000 100.0000
v  -0.0000 75.3368 95.6773
v  -8.2717 73.5786 95.6773
v  -15.1132 68.6080 95.6773
v  -19.3415 61.2844 95.6773
v  -20.2254 52.8742 95.6773
v  -17.6122 44.8316 95.6773
v  -11.9537 38.5472 95.6773
v  -4.2283 35.1076 95.6773
v  4.2283 35.1076 95.6773
v  11.9537 38.5472 95.6773
v  17.6122 44.8316 95.6773
v  20.2254 52.8742 95.6773
v  19.3415 61.2844 95.6773
v  15.1132 68.6080 95.6773
v  8.2717 73.5786 95.6773
v  -0.0000 92.1572 83.4565
v  -15.1132 88.9448 83.4565
v  -27.6132 79.8630 83.4565
v  -35.3386 66.4822 83.4565
v  -36.9537 51.1160 83.4565
v  -32.1791 36.4214 83.4565
v  -21.8405 24.9392 83.4565
v  -7.7254 18.6547 83.4565
v  7.7254 18.6547 83.4565
v  21.8405 24.9392 83.4565
v  32.1791 36.4214 83.4565
v  36.9537 51.1160 83.4565
v  35.3386 66.4822 83.4565
v  27.6132 79.8631 83.4565
v  15.1132 88.9448 83.4565
v  -0.0000 102.5528 65.4508
v  -19.3415 98.4417 65.4508
v  -35.3386 86.8190 65.4508
v  -45.2254 69.6946 65.4508
v  -47.2923 50.0294 65.4508
v  -41.1820 31.2236 65.4508
v  -27.9508 16.5289 65.4508
v  -9.8868 8.4863 65.4508
v  9.8868 8.4863 65.4508
v  27.9509 16.5290 65.4508
v  41.1820 31.2236 65.4508
v  47.2923 50.0294 65.4508
v  45.2254 69.6946 65.4508
v  35.3386 86.8191 65.4508
v  19.3415 98.4417 65.4508
v  -0.0000 104.7261 44.7736
v  -20.2254 100.4270 44.7736
v  -36.9537 88.2732 44.7736
v  -47.2923 70.3662 44.7736
v  -49.4537 49.8022 44.7736
v  -43.0641 30.1369 44.7736
v  -29.2283 14.7707 44.7736
v  -10.3386 6.3605 44.7736
v  10.3386 6.3605 44.7736
v  29.2283 14.7708 44.7736
v  43.0641 30.1370 44.7736
v  49.4537 49.8022 44.7736
v  47.2923 70.3662 44.7736
v  36.9537 88.2733 44.7736
v  20.2254 100.4271 44.7736
v  -0.0000 98.3013 25.0000
v  -17.6122 94.5577 25.0000
v  -32.1791 83.9742 25.0000
v  -41.1819 68.3808 25.0000
v  -43.0641 50.4738 25.0000
v  -37.5000 33.3494 25.0000
v  -25.4518 19.9685 25.0000
v  -9.0028 12.6450 25.0000
v  9.0028 12.6450 25.0000
v  25.4519 19.9685 25.0000
v  37.5000 33.3494 25.0000
v  43.0641 50.4738 25.0000
v  41.1819 68.3808 25.0000
v  32.1791 83.9742 25.0000
v  17.6122 94.5577 25.0000
v  -0.0000 84.3893 9.5491
v  -11.9537 81.8484 9.5491
v  -21.8405 74.6652 9.5491
v  -27.9508 64.0818 9.5491
v  -29.2283 51.9280 9.5491
v  -25.4518 40.3054 9.5491
v  -17.2746 31.2236 9.5491
v  -6.1104 26.2530 9.5491
v  6.1104 26.2530 9.5491
v  17.2746 31.2236 9.5491
v  25.4518 40.3054 9.5491
v  29.2283 51.9280 9.5491
v  27.9508 64.0818 9.5491
v  21.8405 74.6653 9.5491
v  11.9537 81.8484 9.5491
v  0.0000 55.0000 0.0000
# 92 vertices

vn -0.0441 0.2077 0.9772
vn -0.1248 0.1718 0.9772
vn -0.1839 0.1062 0.9772
vn -0.2112 0.0222 0.9772
vn -0.2020 -0.0656 0.9772
vn -0.1578 -0.1421 0.9772
vn -0.0864 -0.1940 0.9772
vn 0.0000 -0.2123 0.9772
vn 0.0864 -0.1940 0.9772
vn 0.1578 -0.1421 0.9772
vn 0.2020 -0.0656 0.9772
vn 0.2112 0.0222 0.9772
vn 0.1839 0.1062 0.9772
vn 0.1248 0.1718 0.9772
vn 0.0441 0.2077 0.9772
vn -0.1240 0.5833 0.8028
vn -0.3505 0.4824 0.8028
vn -0.5164 0.2981 0.8028
vn -0.5930 0.0623 0.8028
vn -0.5671 -0.1843 0.8028
vn -0.4431 -0.3990 0.8028
vn -0.2425 -0.5447 0.8028
vn 0.0000 -0.5963 0.8028
vn 0.2425 -0.5447 0.8028
vn 0.4431 -0.3990 0.8028
vn 0.5671 -0.1843 0.8028
vn 0.5930 0.0623 0.8028
vn 0.5164 0.2981 0.8028
vn 0.3505 0.4824 0.8028
vn 0.1240 0.5833 0.8028
vn -0.1810 0.8517 0.4917
vn -0.5118 0.7044 0.4917
vn -0.7541 0.4354 0.4917
vn -0.8660 0.0910 0.4917
vn -0.8281 -0.2691 0.4917
vn -0.6471 -0.5826 0.4917
vn -0.3542 -0.7955 0.4917
vn 0.0000 -0.8707 0.4917
vn 0.3542 -0.7955 0.4917
vn 0.6471 -0.5826 0.4917
vn 0.8281 -0.2691 0.4917
vn 0.8660 0.0910 0.4917
vn 0.7541 0.4354 0.4917
vn 0.5118 0.7044 0.4917
vn 0.1810 0.8517 0.4917
vn -0.2068 0.9730 0.1023
vn -0.5847 0.8048 0.1023
vn -0.8615 0.4974 0.1023
vn -0.9893 0.1040 0.1023
vn -0.9461 -0.3074 0.1023
vn -0.7392 -0.6656 0.1023
vn -0.4046 -0.9088 0.1023
vn 0.0000 -0.9948 0.1023
vn 0.4046 -0.9088 0.1023
vn 0.7392 -0.6656 0.1023
vn 0.9461 -0.3074 0.1023
vn 0.9893 0.1040 0.1023
vn 0.8615 0.4974 0.1023
vn 0.5847 0.8048 0.1023
vn 0.2068 0.9730 0.1023
vn -0.1981 0.9322 -0.3029
vn -0.5602 0.7710 -0.3029
vn -0.8253 0.4765 -0.3029
vn -0.9478 0.0996 -0.3029
vn -0.9064 -0.2945 -0.3029
vn -0.7082 -0.6377 -0.3029
vn -0.3876 -0.8706 -0.3029
vn 0.0000 -0.9530 -0.3029
vn 0.3876 -0.8706 -0.3029
vn 0.7082 -0.6377 -0.3029
vn 0.9064 -0.2945 -0.3029
vn 0.9478 0.0996 -0.3029
vn 0.8253 0.4765 -0.3029
vn 0.5602 0.7710 -0.3029
vn 0.1981 0.9322 -0.3029
vn -0.1560 0.7340 -0.6609
vn -0.4411 0.6071 -0.6609
vn -0.6499 0.3752 -0.6609
vn -0.7463 0.0784 -0.6609
vn -0.7137 -0.2319 -0.6609
vn -0.5577 -0.5021 -0.6609
vn -0.3052 -0.6856 -0.6609
vn 0.0000 -0.7504 -0.6609
vn 0.3052 -0.6856 -0.6609
vn 0.5577 -0.5021 -0.6609
vn 0.7137 -0.2319 -0.6609
vn 0.7463 0.0784 -0.6609
vn 0.6499 0.3752 -0.6609
vn 0.4411 0.6071 -0.6609
vn 0.1560 0.7340 -0.6609
vn -0.0655 0.3084 -0.9490
vn -0.1853 0.2550 -0.9490
vn -0.2730 0.1576 -0.9490
vn -0.3135 0.0330 -0.9490
vn -0.2998 -0.0974 -0.9490
vn -0.2343 -0.2109 -0.9490
vn -0.1282 -0.2880 -0.9490
vn 0.0000 -0.3152 -0.9490
vn 0.1282 -0.2880 -0.9490
vn 0.2343 -0.2109 -0.9490
vn 0.2998 -0.0974 -0.9490
vn 0.3135 0.0330 -0.9490
vn 0.2730 0.1576 -0.9490
vn 0.1853 0.2550 -0.9490
vn 0.0655 0.3084 -0.9490
# 105 vertex normals

g Sphere01
usemtl 02___Default
f 9//7 10//7 11//7 
f 9//8 11//8 12//8 
f 9//9 12//9 13//9 
f 9//10 13//10 14//10 
f 9//11 14//11 15//11 
f 9//12 15//12 16//12 
f 9//13 16//13 17//13 
f 9//14 17//14 18//14 
f 9//15 18//15 19//15 
f 9//16 19//16 20//16 
f 9//17 20//17 21//17 
f 9//18 21//18 22//18 
f 9//19 22//19 23//19 
f 9//20 23//20 24//20 
f 9//21 24//21 10//21 
f 10//22 25//22 26//22 
f 10//22 26//22 11//22 
f 11//23 26//23 27//23 
f 11//23 27//23 12//23 
f 12//24 27//24 28//24 
f 12//24 28//24 13//24 
f 13//25 28//25 29//25 
f 13//25 29//25 14//25 
f 14//26 29//26 30//26 
f 14//26 30//26 15//26 
f 15//27 30//27 31//27 
f 15//27 31//27 16//27 
f 16//28 31//28 32//28 
f 16//28 32//28 17//28 
f 17//29 32//29 33//29 
f 17//29 33//29 18//29 
f 18//30 33//30 34//30 
f 18//30 34//30 19//30 
f 19//31 34//31 35//31 
f 19//31 35//31 20//31 
f 20//32 35//32 36//32 
f 20//32 36//32 21//32 
f 21//33 36//33 37//33 
f 21//33 37//33 22//33 
f 22//34 37//34 38//34 
f 22//34 38//34 23//34 
f 23//35 38//35 39//35 
f 23//35 39//35 24//35 
f 24//36 39//36 25//36 
f 24//36 25//36 10//36 
f 25//37 40//37 41//37 
f 25//37 41//37 26//37 
f 26//38 41//38 42//38 
f 26//38 42//38 27//38 
f 27//39 42//39 43//39 
f 27//39 43//39 28//39 
f 28//40 43//40 44//40 
f 28//40 44//40 29//40 
f 29//41 44//41 45//41 
f 29//41 45//41 30//41 
f 30//42 45//42 46//42 
f 30//42 46//42 31//42 
f 31//43 46//43 47//43 
f 31//43 47//43 32//43 
f 32//44 47//44 48//44 
f 32//44 48//44 33//44 
f 33//45 48//45 49//45 
f 33//45 49//45 34//45 
f 34//46 49//46 50//46 
f 34//46 50//46 35//46 
f 35//47 50//47 51//47 
f 35//47 51//47 36//47 
f 36//48 51//48 52//48 
f 36//48 52//48 37//48 
f 37//49 52//49 53//49 
f 37//49 53//49 38//49 
f 38//50 53//50 54//50 
f 38//50 54//50 39//50 
f 39//51 54//51 40//51 
f 39//51 40//51 25//51 
f 40//52 55//52 56//52 
f 40//52 56//52 41//52 
f 41//53 56//53 57//53 
f 41//53 57//53 42//53 
f 42//54 57//54 58//54 
f 42//54 58//54 43//54 
f 43//55 58//55 59//55 
f 43//55 59//55 44//55 
f 44//56 59//56 60//56 
f 44//56 60//56 45//56 
f 45//57 60//57 61//57 
f 45//57 61//57 46//57 
f 46//58 61//58 62//58 
f 46//58 62//58 47//58 
f 47//59 62//59 63//59 
f 47//59 63//59 48//59 
f 48//60 63//60 64//60 
f 48//60 64//60 49//60 
f 49//61 64//61 65//61 
f 49//61 65//61 50//61 
f 50//62 65//62 66//62 
f 50//62 66//62 51//62 
f 51//63 66//63 67//63 
f 51//63 67//63 52//63 
f 52//64 67//64 68//64 
f 52//64 68//64 53//64 
f 53//65 68//65 69//65 
f 53//65 69//65 54//65 
f 54//66 69//66 55//66 
f 54//66 55//66 40//66 
f 55//67 70//67 71//67 
f 55//67 71//67 56//67 
f 56//68 71//68 72//68 
f 56//68 72//68 57//68 
f 57//69 72//69 73//69 
f 57//69 73//69 58//69 
f 58//70 73//70 74//70 
f 58//70 74//70 59//70 
f 59//71 74//71 75//71 
f 59//71 75//71 60//71 
f 60//72 75//72 76//72 
f 60//72 76//72 61//72 
f 61//73 76//73 77//73 
f 61//73 77//73 62//73 
f 62//74 77//74 78//74 
f 62//74 78//74 63//74 
f 63//75 78//75 79//75 
f 63//75 79//75 64//75 
f 64//76 79//76 80//76 
f 64//76 80//76 65//76 
f 65//77 80//77 81//77 
f 65//77 81//77 66//77 
f 66//78 81//78 82//78 
f 66//78 82//78 67//78 
f 67//79 82//79 83//79 
f 67//79 83//79 68//79 
f 68//80 83//80 84//80 
f 68//80 84//80 69//80 
f 69//81 84//81 70//81 
f 69//81 70//81 55//81 
f 70//82 85//82 86//82 
f 70//82 86//82 71//82 
f 71//83 86//83 87//83 
f 71//83 87//83 72//83 
f 72//84 87//84 88//84 
f 72//84 88//84 73//84 
f 73//85 88//85 89//85 
f 73//85 89//85 74//85 
f 74//86 89//86 90//86 
f 74//86 90//86 75//86 
f 75//87 90//87 91//87 
f 75//87 91//87 76//87 
f 76//88 91//88 92//88 
f 76//88 92//88 77//88 
f 77//89 92//89 93//89 
f 77//89 93//89 78//89 
f 78//90 93//90 94//90 
f 78//90 94//90 79//90 
f 79//91 94//91 95//91 
f 79//91 95//91 80//91 
f 80//92 95//92 96//92 
f 80//92 96//92 81//92 
f 81//93 96//93 97//93 
f 81//93 97//93 82//93 
f 82//94 97//94 98//94 
f 82//94 98//94 83//94 
f 83//95 98//95 99//95 
f 83//95 99//95 84//95 
f 84//96 99//96 85//96 
f 84//96 85//96 70//96 
f 100//97 86//97 85//97 
f 100//98 87//98 86//98 
f 100//99 88//99 87//99 
f 100//100 89//100 88//100 
f 100//101 90//101 89//101 
f 100//102 91//102 90//102 
f 100//103 92//103 91//103 
f 100//104 93//104 92//104 
f 100//105 94//105 93//105 
f 100//106 95//106 94//106 
f 100//107 96//107 95//107 
f 100//108 97//108 96//108 
f 100//109 98//109 97//109 
f 100//110 99//110 98//110 
f 100//111 85//111 99//111 
# 180 faces

#
# object Plane01
#

v  -1519.6272 1052.0496 0.0000
v  -1519.6272 -1052.0496 0.0000
v  1519.6272 1052.0496 0.0000
v  1519.6272 -1052.0496 0.0000
# 4 vertices

vn 0.0000 0.0000 1.0000
# 1 vertex normals

g Plane01
usemtl 01___Default
f 101//112 102//112 103//112 
f 104//112 103//112 102//112 
# 2 faces

#luz puntual numero 1
#el proximo vertice es la posicion
v 0.0000 0.0000 210.0000
usemtl light_material
lp -1

#luz puntual numero 2
#el proximo vertice es la posicion
v 0.0000 -150.0000 210.0000
usemtl light_material
lp -1

#Camara
v 0.0000 0.0000 0.0000
v 375.0000 0.0000 87.0000
vn 0.0000 0.0000 1.0000
#posicion target up
c -1 -2 -1

#PLANO DE VISTA!!!
#se utiliza el light quad para levantar el plano de vista.
#cada uno de los siguientes cuatro vertices son las esquinas del plano de vista.
v 137.0000 -195.0000 161.0000
v 137.0000 178.0000 161.0000 
v 167.0000 -195.0000 -69.0000
lq -3 -2 -1 -1